# xmcd
#
# Track frame offsets:
#	150
#	19564
#	40519
#	62386
#	87087
#	109613
#	130110
#	153676
#	171599
#	194500
#
# Disc length: 2972 seconds
#
# Revision: 0
# Processed by: cddbd v1.5.1PL0 Copyright (c) Steve Scherf et al.
# Submitted via: dBpowerAMP V4.0
#
DISCID=780b9a0a
DTITLE=Bobby Holland and The Breadline - Onward To Oblivion
DYEAR=2004
DGENRE=Blues
TTITLE0=What's Your Name
TTITLE1=Going To The Promised Land
TTITLE2=Let Me In
TTITLE3=Same Thing (with Dave Mathis)
TTITLE4=Smoke, Smoke, Smoke (with Jeff Nicely) 
TTITLE5=On The Breadline
TTITLE6=My Hard Days Are Over
TTITLE7=Virginia Swing
TTITLE8=Cosmik Debris
TTITLE9=T For Texas (with Jeff Nicely and Dave Mathais)
EXTD=
EXTT0=
EXTT1=
EXTT2=
EXTT3=
EXTT4=
EXTT5=
EXTT6=
EXTT7=
EXTT8=
EXTT9=
PLAYORDER=
